<?xml version="1.0" encoding="utf-8"?>
<!-- Generator: Adobe Illustrator 27.0.0, SVG Export Plug-In . SVG Version: 6.00 Build 0)  -->
<svg version="1.1" id="Layer_2_00000023975434946596475840000007605346490689801151_"
	 xmlns="http://www.w3.org/2000/svg" xmlns:xlink="http://www.w3.org/1999/xlink" x="0px" y="0px" viewBox="0 0 610.1 174.2"
	 style="enable-background:new 0 0 610.1 174.2;" xml:space="preserve">
<style type="text/css">
	.st0{fill:#FFFFFF;}
	.st1{font-family:'Minal';}
	.st2{font-size:53.87px;}
</style>
<g id="Layer_1-2">
	<text transform="matrix(1.06 0 0 1 180.9702 99.5601)" class="st0 st1 st2">T</text>
	<text transform="matrix(1.06 0 0 1 218.939 99.5601)" class="st0 st1 st2">h</text>
	<text transform="matrix(1.06 0 0 1 253.8345 99.5601)" class="st0 st1 st2">eo</text>
	<text transform="matrix(1.06 0 0 1 314.5298 99.5601)" class="st0 st1 st2">d</text>
	<text transform="matrix(1.06 0 0 1 346.0542 99.5601)" class="st0 st1 st2">o</text>
	<text transform="matrix(1.06 0 0 1 378.7129 99.5601)" class="st0 st1 st2">re </text>
	<text transform="matrix(1.06 0 0 1 455.1177 99.5601)" class="st0 st1 st2">m</text>
	<text transform="matrix(1.06 0 0 1 503.7188 99.5601)" class="st0 st1 st2">ca</text>
	<g>
		<path class="st0" d="M34.5,36.4V118c0,5.9,2.6,11.5,7,15l41,32.3c5.8,4.6,13.7,4.6,19.6,0l41-32.3c4.4-3.5,7-9,7-15V36.4
			l-49.2,24.8c-5.4,2.7-11.6,2.7-17,0L34.5,36.4z"/>
		<path class="st0" d="M168.5,5.4L99.5,51.1c-4.5,3-10.1,3-14.5,0L16,5.4l76.2,31.2L168.5,5.4z"/>
	</g>
</g>
</svg>
